<svg width="105" height="28" viewBox="0 0 105 28" fill="none" xmlns="http://www.w3.org/2000/svg">
  <path d="M31.9359 0H29.8461V27.8057H31.9359V0Z" fill="#0A2A33"/>
  <path d="M17.9435 13.3115H7.77167V15.2225H17.9435V13.3115Z" fill="#0A2A33"/>
  <path d="M0 0V27.8057H2.08988V1.91093H23.6744V0H0Z" fill="#0A2A33"/>
  <path d="M94.5668 0.113281H77.9784V27.9189H80.0683V17.5546H80.0846V15.6436H80.0683V2.02421H94.4199C99.4649 2.02421 102.91 4.32381 102.91 8.72866V8.80964C102.91 12.9392 99.3833 15.6436 94.1749 15.6436H87.6114V17.5546H94.0607C99.9058 17.5546 105 14.5424 105 8.69628V8.6153C104.967 3.23879 100.722 0.113281 94.5668 0.113281Z" fill="#0A2A33"/>
  <path d="M65.8474 15.6437L56.1327 0H54.1245L36.8177 28H38.9729L55.0878 2.26721L63.4963 15.6437H65.8474Z" fill="#0A2A33"/>
  <path d="M69.0476 20.7773H66.7291L71.2517 28H73.5376L69.0476 20.7773Z" fill="#0A2A33"/>
</svg>
