<svg width="54.75" height="18" viewBox="0 0 73 24" fill="none" xmlns="http://www.w3.org/2000/svg"><path d="M14.6197 17.2253C14.6197 21.72 11.8206 24.0078 7.54118 24.0078C5.22653 24.0078 3.07337 23.3618 1.21626 22.0699L2.15827 20.4551C3.74623 21.6124 5.52259 22.2314 7.51427 22.2314C10.5825 22.2314 12.5742 20.5358 12.5742 17.2791V15.6374C11.363 17.2522 9.66743 18.571 7.11055 18.571C3.77314 18.571 0.570312 16.0949 0.570312 12.0308C0.570312 7.93979 3.80006 5.43674 7.11055 5.43674C9.72126 5.43674 11.4169 6.72864 12.5473 8.23585V5.7328H14.6197V17.2253ZM12.628 12.0039C12.628 9.12403 10.1519 7.26693 7.51427 7.26693C4.87664 7.26693 2.69656 9.0702 2.69656 11.977C2.69656 14.8299 4.93047 16.7408 7.51427 16.7408C10.1519 16.7408 12.628 14.8568 12.628 12.0039Z" fill="#3BC7DA"></path><path d="M20.0312 19.6476H17.9588V0H20.0312V19.6476Z" fill="#3BC7DA"></path><path d="M37.0061 12.6768C37.0061 16.6332 33.9109 19.9706 29.7122 19.9706C25.5405 19.9706 22.4991 16.687 22.4991 12.7306C22.4991 8.77414 25.5674 5.43674 29.7661 5.43674C33.9378 5.43674 37.0061 8.72031 37.0061 12.6768ZM34.8798 12.7306C34.8798 9.68924 32.6459 7.26693 29.7122 7.26693C26.6978 7.26693 24.6254 9.66232 24.6254 12.6768C24.6254 15.6912 26.8324 18.1135 29.7661 18.1135C32.7805 18.1135 34.8798 15.7181 34.8798 12.7306Z" fill="#3BC7DA"></path><path d="M53.3293 12.6768C53.3293 17.2522 50.0458 19.9437 46.6814 19.9437C44.0977 19.9437 42.4289 18.5441 41.3524 16.9831V19.6476H39.2799V0H41.3524V8.53191C42.4828 6.86321 44.1246 5.43674 46.6814 5.43674C50.0189 5.43674 53.3293 8.07436 53.3293 12.6768ZM51.2031 12.7037C51.2031 9.39318 48.9423 7.29384 46.3046 7.29384C43.7208 7.29384 41.2716 9.44701 41.2716 12.6768C41.2716 15.9334 43.7208 18.0866 46.3046 18.0866C48.9961 18.0866 51.2031 16.0949 51.2031 12.7037Z" fill="#3BC7DA"></path><path d="M60.7056 7.37459C59.0638 7.37459 57.7719 7.80522 56.48 8.39734L55.861 6.70172C57.3951 6.00194 58.9023 5.5444 60.9209 5.5444C64.7159 5.5444 66.8421 7.48224 66.8421 11.1426V19.6476H64.8504V17.5483C63.8815 18.8133 62.2667 19.9437 59.8174 19.9437C57.2336 19.9437 54.6229 18.4903 54.6229 15.5835C54.6229 12.6229 57.0452 11.0619 60.571 11.0619C62.3474 11.0619 63.6124 11.3041 64.8504 11.654V11.1695C64.8504 8.66648 63.3163 7.37459 60.7056 7.37459ZM60.7864 12.596C58.1756 12.596 56.7223 13.7264 56.7223 15.5028C56.7223 17.2791 58.3371 18.3019 60.2211 18.3019C62.778 18.3019 64.8774 16.7408 64.8774 14.5339V13.1881C63.8546 12.8921 62.482 12.596 60.7864 12.596Z" fill="#3BC7DA"></path><path d="M72.0394 19.6476H69.9669V0H72.0394V19.6476Z" fill="#3BC7DA"></path></svg>