<svg width="72.75" height="18" viewBox="0 0 97 20" fill="none" xmlns="http://www.w3.org/2000/svg"><path d="M11.8354 15.4489C11.8354 18.4365 9.5207 19.9168 6.5601 19.9168C4.54151 19.9168 2.30761 19.1901 0.53125 17.7905L1.98463 15.5835C3.51876 16.7408 5.18747 17.333 6.64085 17.333C8.04041 17.333 8.84785 16.7408 8.84785 15.7988V15.745C8.84785 14.6415 7.34063 14.2647 5.67193 13.7533C3.57259 13.1612 1.23103 12.2999 1.23103 9.58158V9.52775C1.23103 6.83629 3.46493 5.19451 6.29096 5.19451C8.06732 5.19451 10.0052 5.81354 11.5124 6.80938L10.2205 9.12403C8.84784 8.28968 7.39446 7.7783 6.21022 7.7783C4.94524 7.7783 4.21854 8.37042 4.21854 9.20477V9.2586C4.21854 10.2814 5.75267 10.712 7.42137 11.2503C9.49379 11.8962 11.8354 12.8382 11.8354 15.3951V15.4489Z" fill="white"></path><path d="M28.0379 12.5422C28.0379 16.6063 24.8082 19.9706 20.4211 19.9706C16.0878 19.9706 12.885 16.6601 12.885 12.596C12.885 8.505 16.1148 5.14068 20.4749 5.14068C24.8351 5.14068 28.0379 8.45117 28.0379 12.5422ZM24.7812 12.596C24.7812 10.066 22.978 7.99362 20.4211 7.99362C17.8104 7.99362 16.1417 10.0391 16.1417 12.5422C16.1417 15.0721 17.945 17.1446 20.4749 17.1446C23.1125 17.1446 24.7812 15.0991 24.7812 12.596Z" fill="white"></path><path d="M33.3193 19.6476H30.0626V0H33.3193V19.6476Z" fill="white"></path><path d="M45.4344 13.4573V5.43674H48.691V19.6476H45.4344V17.4406C44.5193 18.7864 43.2005 19.9437 40.9935 19.9437C37.7906 19.9437 35.9335 17.7905 35.9335 14.48V5.43674H39.1902V13.5111C39.1902 15.7181 40.2937 16.9831 42.2315 16.9831C44.1156 16.9831 45.4344 15.6643 45.4344 13.4573Z" fill="white"></path><path d="M55.2344 8.23585V15.2067C55.2344 16.4717 55.8804 16.9831 56.9839 16.9831C57.7106 16.9831 58.3565 16.8216 59.0025 16.4986V19.1632C58.195 19.6207 57.2799 19.8898 56.0688 19.8898C53.6734 19.8898 51.9778 18.8402 51.9778 15.7181V8.23585H50.1745V5.43674H51.9778V1.53413H55.2344V5.43674H59.0563V8.23585H55.2344Z" fill="white"></path><path d="M64.4165 3.25666H60.9176V0.161487H64.4165V3.25666ZM64.3088 19.6476H61.0522V5.43674H64.3088V19.6476Z" fill="white"></path><path d="M81.457 12.5422C81.457 16.6063 78.2272 19.9706 73.8402 19.9706C69.5069 19.9706 66.3041 16.6601 66.3041 12.596C66.3041 8.505 69.5338 5.14068 73.894 5.14068C78.2541 5.14068 81.457 8.45117 81.457 12.5422ZM78.2003 12.596C78.2003 10.066 76.397 7.99362 73.8402 7.99362C71.2294 7.99362 69.5608 10.0391 69.5608 12.5422C69.5608 15.0721 71.364 17.1446 73.894 17.1446C76.5316 17.1446 78.2003 15.0991 78.2003 12.596Z" fill="white"></path><path d="M86.5499 11.6271V19.6476H83.2933V5.43674H86.5499V7.64373C87.465 6.298 88.7838 5.14068 90.9908 5.14068C94.1937 5.14068 96.0508 7.29384 96.0508 10.6043V19.6476H92.7941V11.5733C92.7941 9.36626 91.6906 8.10128 89.7528 8.10128C87.8687 8.10128 86.5499 9.42009 86.5499 11.6271Z" fill="white"></path></svg>